REM MD5 b289d8003d246664ff18d96a598c9e79
FILE "Next Tetris, The (Japan) (Demo).bin" BINARY
  TRACK 01 MODE2/2352
    INDEX 01 00:00:00
  TRACK 02 AUDIO
    INDEX 00 02:32:13
    INDEX 01 02:34:13
  TRACK 03 AUDIO
    INDEX 00 05:31:20
    INDEX 01 05:33:20
REM LEADOUT 09:30:46
